<svg width="560" height="420" viewBox="0 0 560 420" fill="none" xmlns="http://www.w3.org/2000/svg">
  <defs>
    <linearGradient id="grad1" x1="0%" y1="0%" x2="100%" y2="100%">
      <stop offset="0%" stop-color="#A78BFA"/>
      <stop offset="100%" stop-color="#6366F1"/>
    </linearGradient>
    <linearGradient id="grad2" x1="0%" y1="0%" x2="100%" y2="0%">
      <stop offset="0%" stop-color="#F472B6"/>
      <stop offset="100%" stop-color="#FB7185"/>
    </linearGradient>
    <filter id="blur" x="-20%" y="-20%" width="140%" height="140%">
      <feGaussianBlur stdDeviation="35" />
    </filter>
  </defs>
  <rect width="560" height="420" rx="36" fill="#0F172A"/>
  <circle cx="120" cy="90" r="120" fill="#4C1D95" opacity="0.5" filter="url(#blur)"/>
  <circle cx="460" cy="300" r="140" fill="#1D4ED8" opacity="0.45" filter="url(#blur)"/>
  <rect x="80" y="120" width="400" height="220" rx="24" fill="url(#grad1)" opacity="0.9"/>
  <rect x="110" y="150" width="340" height="160" rx="20" fill="#0F172A" opacity="0.85"/>
  <rect x="140" y="180" width="140" height="16" rx="8" fill="url(#grad2)"/>
  <rect x="140" y="210" width="200" height="10" rx="5" fill="#475569"/>
  <rect x="140" y="230" width="160" height="10" rx="5" fill="#475569"/>
  <rect x="140" y="250" width="220" height="10" rx="5" fill="#475569"/>
  <circle cx="410" cy="205" r="28" fill="url(#grad2)" opacity="0.9"/>
  <circle cx="360" cy="270" r="16" fill="#A78BFA" opacity="0.7"/>
  <path d="M440 300C420 280 400 280 380 300" stroke="#C4B5FD" stroke-width="4" stroke-linecap="round"/>
  <path d="M210 320C220 300 240 300 250 320" stroke="#A78BFA" stroke-width="4" stroke-linecap="round"/>
</svg>

